<mxfile host="app.diagrams.net" agent="Mozilla/5.0 (Windows NT 10.0; Win64; x64) AppleWebKit/537.36 (KHTML, like Gecko) Chrome/140.0.0.0 Safari/537.36 Edg/140.0.0.0" version="28.2.3">
  <diagram name="Página-1" id="UNAtNN4sCWnZ35QcyA7S">
    <mxGraphModel dx="1915" dy="835" grid="1" gridSize="10" guides="1" tooltips="1" connect="1" arrows="1" fold="1" page="1" pageScale="1" pageWidth="827" pageHeight="1169" math="0" shadow="0">
      <root>
        <mxCell id="0" />
        <mxCell id="1" parent="0" />
        <mxCell id="zqXJkYQbG3KaJtKTiUoM-2" value="" style="rounded=0;whiteSpace=wrap;html=1;movable=1;resizable=1;rotatable=1;deletable=1;editable=1;locked=0;connectable=1;" vertex="1" parent="1">
          <mxGeometry x="110" y="40" width="1450" height="1470" as="geometry" />
        </mxCell>
        <mxCell id="zqXJkYQbG3KaJtKTiUoM-31" value="" style="rounded=0;whiteSpace=wrap;html=1;fillColor=#F6F6F6;" vertex="1" parent="1">
          <mxGeometry x="320" y="49" width="1110" height="660" as="geometry" />
        </mxCell>
        <mxCell id="zqXJkYQbG3KaJtKTiUoM-17" value="&lt;font style=&quot;font-size: 13px;&quot;&gt;1)&amp;nbsp;&lt;/font&gt;&lt;span style=&quot;font-size: 13px; background-color: light-dark(#ffffff, var(--ge-dark-color, #121212)); color: light-dark(rgb(0, 0, 0), rgb(255, 255, 255));&quot;&gt;Solicita portabilidade de salário&amp;nbsp;&lt;/span&gt;" style="edgeStyle=orthogonalEdgeStyle;rounded=0;orthogonalLoop=1;jettySize=auto;html=1;entryX=0.5;entryY=0;entryDx=0;entryDy=0;textDirection=vertical-lr;movable=1;resizable=1;rotatable=1;deletable=1;editable=1;locked=0;connectable=1;horizontal=0;" edge="1" parent="1">
          <mxGeometry x="-0.2" y="-106" relative="1" as="geometry">
            <mxPoint x="836" y="160" as="sourcePoint" />
            <mxPoint x="836" y="360" as="targetPoint" />
            <mxPoint as="offset" />
          </mxGeometry>
        </mxCell>
        <mxCell id="zqXJkYQbG3KaJtKTiUoM-3" value="Usuário" style="shape=umlActor;verticalLabelPosition=middle;verticalAlign=middle;html=1;outlineConnect=0;fontSize=16;align=right;labelPosition=left;" vertex="1" parent="1">
          <mxGeometry x="823" y="60" width="60" height="100" as="geometry" />
        </mxCell>
        <mxCell id="zqXJkYQbG3KaJtKTiUoM-25" value="3) Envia os dados pessoais &lt;br&gt;através do consentimento autorizado" style="edgeStyle=orthogonalEdgeStyle;rounded=0;orthogonalLoop=1;jettySize=auto;html=1;labelPosition=right;verticalLabelPosition=bottom;align=left;verticalAlign=top;entryX=0.284;entryY=1.06;entryDx=0;entryDy=0;entryPerimeter=0;" edge="1" parent="1" source="zqXJkYQbG3KaJtKTiUoM-7" target="zqXJkYQbG3KaJtKTiUoM-15">
          <mxGeometry x="-0.5113" y="45" relative="1" as="geometry">
            <mxPoint x="857" y="500" as="targetPoint" />
            <Array as="points">
              <mxPoint x="831" y="625" />
            </Array>
            <mxPoint as="offset" />
          </mxGeometry>
        </mxCell>
        <mxCell id="zqXJkYQbG3KaJtKTiUoM-7" value="Banco Folha" style="shape=cylinder3;whiteSpace=wrap;html=1;boundedLbl=1;backgroundOutline=1;size=15;" vertex="1" parent="1">
          <mxGeometry x="440" y="570" width="70" height="110" as="geometry" />
        </mxCell>
        <mxCell id="zqXJkYQbG3KaJtKTiUoM-27" style="edgeStyle=orthogonalEdgeStyle;rounded=0;orthogonalLoop=1;jettySize=auto;html=1;entryX=0.625;entryY=1;entryDx=0;entryDy=0;" edge="1" parent="1" source="zqXJkYQbG3KaJtKTiUoM-12" target="zqXJkYQbG3KaJtKTiUoM-15">
          <mxGeometry relative="1" as="geometry" />
        </mxCell>
        <mxCell id="zqXJkYQbG3KaJtKTiUoM-12" value="Banco Recebedor" style="shape=cylinder3;whiteSpace=wrap;html=1;boundedLbl=1;backgroundOutline=1;size=15;" vertex="1" parent="1">
          <mxGeometry x="1240" y="553" width="70" height="110" as="geometry" />
        </mxCell>
        <mxCell id="zqXJkYQbG3KaJtKTiUoM-15" value="ITP" style="shape=hexagon;perimeter=hexagonPerimeter2;whiteSpace=wrap;html=1;fixedSize=1;" vertex="1" parent="1">
          <mxGeometry x="797" y="360" width="120" height="80" as="geometry" />
        </mxCell>
        <mxCell id="zqXJkYQbG3KaJtKTiUoM-18" style="edgeStyle=orthogonalEdgeStyle;rounded=0;orthogonalLoop=1;jettySize=auto;html=1;entryX=0.5;entryY=0;entryDx=0;entryDy=0;entryPerimeter=0;" edge="1" parent="1" source="zqXJkYQbG3KaJtKTiUoM-15" target="zqXJkYQbG3KaJtKTiUoM-7">
          <mxGeometry relative="1" as="geometry" />
        </mxCell>
        <mxCell id="zqXJkYQbG3KaJtKTiUoM-22" value="2) Solicita consentimento de dados&amp;nbsp;&lt;div&gt;&lt;span style=&quot;background-color: light-dark(#ffffff, var(--ge-dark-color, #121212)); color: light-dark(rgb(0, 0, 0), rgb(255, 255, 255));&quot;&gt;+&lt;/span&gt;&lt;div&gt;&amp;nbsp;pagamentos automáticos&lt;/div&gt;&lt;/div&gt;" style="edgeLabel;html=1;align=center;verticalAlign=middle;resizable=0;points=[];fontSize=13;" vertex="1" connectable="0" parent="zqXJkYQbG3KaJtKTiUoM-18">
          <mxGeometry x="-0.042" y="-1" relative="1" as="geometry">
            <mxPoint x="29" y="-26" as="offset" />
          </mxGeometry>
        </mxCell>
        <mxCell id="zqXJkYQbG3KaJtKTiUoM-23" value="" style="group" vertex="1" connectable="0" parent="1">
          <mxGeometry x="947" y="60" width="363" height="310" as="geometry" />
        </mxCell>
        <mxCell id="zqXJkYQbG3KaJtKTiUoM-34" value="" style="group" vertex="1" connectable="0" parent="zqXJkYQbG3KaJtKTiUoM-23">
          <mxGeometry y="10" width="363" height="300.00000000000006" as="geometry" />
        </mxCell>
        <mxCell id="zqXJkYQbG3KaJtKTiUoM-19" value="" style="strokeWidth=2;html=1;shape=mxgraph.flowchart.annotation_2;align=left;labelPosition=right;pointerEvents=1;" vertex="1" parent="zqXJkYQbG3KaJtKTiUoM-34">
          <mxGeometry width="50" height="290" as="geometry" />
        </mxCell>
        <mxCell id="zqXJkYQbG3KaJtKTiUoM-21" value="1. Usuário deve informar qual o banco em que ele recebe o salário atualmente, qual banco ele quer passar a receber, e os dados da conta recebedora(inserção manual ou chave pix)&lt;br&gt;2. Solicita consentimento de dados + pagamentos de transferências inteligentes, permitindo acesso ao histórico de recebimentos do empregador do usuário e a transferência na data.&lt;div&gt;3. Os dados autorizados são enviados e a ITP coleta CNPJ, razão social e outros dados pertinentes do empregador.&lt;/div&gt;&lt;div&gt;4. Invoca o serviço de consulta de elegibilidade da conta recebedora. Pode ser um novo serviço criado para verificação de elegibilidade ou&amp;nbsp; chave Pix e a consulta ser feita no DICT.&lt;/div&gt;&lt;div&gt;5. Banco recebedor confirma o resultado da consulta, podendo ser(?) ELEGIVEL, NAO_ELEGIVEL&lt;/div&gt;&lt;div&gt;6. Será confirmado ao usuário que o processo de solicitação dele foi concluido e, no dia previsto de recebimento, será realizada a operação&lt;/div&gt;" style="text;html=1;align=left;verticalAlign=top;whiteSpace=wrap;rounded=0;" vertex="1" parent="zqXJkYQbG3KaJtKTiUoM-34">
          <mxGeometry x="33" y="2.916666666666668" width="330" height="297.08333333333337" as="geometry" />
        </mxCell>
        <mxCell id="zqXJkYQbG3KaJtKTiUoM-24" style="edgeStyle=orthogonalEdgeStyle;rounded=0;orthogonalLoop=1;jettySize=auto;html=1;entryX=0.5;entryY=0;entryDx=0;entryDy=0;entryPerimeter=0;" edge="1" parent="1" source="zqXJkYQbG3KaJtKTiUoM-15" target="zqXJkYQbG3KaJtKTiUoM-12">
          <mxGeometry relative="1" as="geometry" />
        </mxCell>
        <mxCell id="zqXJkYQbG3KaJtKTiUoM-28" value="4) Consulta a elegibilidade da&lt;br&gt;&amp;nbsp;conta selecionada pelo pagador" style="edgeLabel;html=1;align=center;verticalAlign=middle;resizable=0;points=[];fontSize=13;" vertex="1" connectable="0" parent="1">
          <mxGeometry x="1070" y="440" as="geometry">
            <mxPoint x="7" y="-8" as="offset" />
          </mxGeometry>
        </mxCell>
        <mxCell id="zqXJkYQbG3KaJtKTiUoM-29" value="5) Devolve&amp;nbsp; o resultado da consulta de elegibilidade" style="edgeLabel;html=1;align=center;verticalAlign=middle;resizable=0;points=[];fontSize=13;" vertex="1" connectable="0" parent="1">
          <mxGeometry x="1030" y="625" as="geometry">
            <mxPoint x="24" y="4" as="offset" />
          </mxGeometry>
        </mxCell>
        <mxCell id="zqXJkYQbG3KaJtKTiUoM-32" value="&lt;h1 style=&quot;margin-top: 0px;&quot;&gt;Setup&lt;/h1&gt;&lt;p&gt;Usuário solicita o processo de portabilidade. ITP deve coletar as informações e fazer as validações necessárias dos dados do banco folha e do banco recebedor&lt;/p&gt;" style="text;html=1;whiteSpace=wrap;overflow=hidden;rounded=0;" vertex="1" parent="1">
          <mxGeometry x="360" y="70" width="180" height="120" as="geometry" />
        </mxCell>
        <mxCell id="zqXJkYQbG3KaJtKTiUoM-33" value="" style="endArrow=classic;html=1;rounded=0;exitX=0.625;exitY=0;exitDx=0;exitDy=0;startSize=7;endSize=7;" edge="1" parent="1" source="zqXJkYQbG3KaJtKTiUoM-15">
          <mxGeometry width="50" height="50" relative="1" as="geometry">
            <mxPoint x="890" y="370" as="sourcePoint" />
            <mxPoint x="870" y="170" as="targetPoint" />
          </mxGeometry>
        </mxCell>
        <mxCell id="zqXJkYQbG3KaJtKTiUoM-36" value="&lt;font&gt;6)&amp;nbsp;&lt;/font&gt;&lt;span style=&quot;color: light-dark(rgb(0, 0, 0), rgb(255, 255, 255));&quot;&gt;Retorna pro usuário o resultado&lt;/span&gt;&lt;div&gt;&lt;span style=&quot;color: light-dark(rgb(0, 0, 0), rgb(255, 255, 255));&quot;&gt;&amp;nbsp;do pedido de portabilidade&lt;/span&gt;&lt;span style=&quot;color: light-dark(rgb(0, 0, 0), rgb(255, 255, 255)); background-color: light-dark(#ffffff, var(--ge-dark-color, #121212));&quot;&gt;&amp;nbsp;&lt;/span&gt;&lt;/div&gt;" style="edgeLabel;html=1;align=center;verticalAlign=middle;resizable=0;points=[];textDirection=vertical-rl;fontSize=11;" vertex="1" connectable="0" parent="zqXJkYQbG3KaJtKTiUoM-33">
          <mxGeometry x="-0.2432" y="-2" relative="1" as="geometry">
            <mxPoint x="23" y="-27" as="offset" />
          </mxGeometry>
        </mxCell>
        <mxCell id="zqXJkYQbG3KaJtKTiUoM-37" value="" style="rounded=0;whiteSpace=wrap;html=1;fillColor=#F6F6F6;" vertex="1" parent="1">
          <mxGeometry x="320" y="795" width="1110" height="660" as="geometry" />
        </mxCell>
        <mxCell id="zqXJkYQbG3KaJtKTiUoM-38" value="&lt;h1 style=&quot;margin-top: 0px;&quot;&gt;Realização da Portabilidade&lt;/h1&gt;&lt;p&gt;ITP, no dia especificado, realiza a operação de transferência de saldo de salário para a conta de crédito selecionada pelo usuário no Banco recebedor&amp;nbsp;&lt;/p&gt;" style="text;html=1;whiteSpace=wrap;overflow=hidden;rounded=0;" vertex="1" parent="1">
          <mxGeometry x="340" y="804" width="180" height="160" as="geometry" />
        </mxCell>
        <mxCell id="zqXJkYQbG3KaJtKTiUoM-71" style="edgeStyle=orthogonalEdgeStyle;rounded=0;orthogonalLoop=1;jettySize=auto;html=1;exitX=0.855;exitY=0;exitDx=0;exitDy=4.35;exitPerimeter=0;entryX=0;entryY=0.75;entryDx=0;entryDy=0;" edge="1" parent="1" source="zqXJkYQbG3KaJtKTiUoM-39" target="zqXJkYQbG3KaJtKTiUoM-41">
          <mxGeometry relative="1" as="geometry">
            <Array as="points">
              <mxPoint x="490" y="1031" />
            </Array>
          </mxGeometry>
        </mxCell>
        <mxCell id="zqXJkYQbG3KaJtKTiUoM-79" value="Response&lt;div&gt;201&lt;/div&gt;" style="edgeLabel;html=1;align=center;verticalAlign=middle;resizable=0;points=[];" vertex="1" connectable="0" parent="zqXJkYQbG3KaJtKTiUoM-71">
          <mxGeometry x="0.4506" y="6" relative="1" as="geometry">
            <mxPoint as="offset" />
          </mxGeometry>
        </mxCell>
        <mxCell id="zqXJkYQbG3KaJtKTiUoM-39" value="Banco Folha" style="shape=cylinder3;whiteSpace=wrap;html=1;boundedLbl=1;backgroundOutline=1;size=15;" vertex="1" parent="1">
          <mxGeometry x="430" y="1184" width="70" height="110" as="geometry" />
        </mxCell>
        <mxCell id="zqXJkYQbG3KaJtKTiUoM-40" value="Banco Recebedor" style="shape=cylinder3;whiteSpace=wrap;html=1;boundedLbl=1;backgroundOutline=1;size=15;" vertex="1" parent="1">
          <mxGeometry x="1170" y="1184" width="70" height="110" as="geometry" />
        </mxCell>
        <mxCell id="zqXJkYQbG3KaJtKTiUoM-41" value="ITP" style="shape=hexagon;perimeter=hexagonPerimeter2;whiteSpace=wrap;html=1;fixedSize=1;" vertex="1" parent="1">
          <mxGeometry x="787" y="974" width="120" height="80" as="geometry" />
        </mxCell>
        <mxCell id="zqXJkYQbG3KaJtKTiUoM-48" value="&lt;div&gt;Request&lt;/div&gt;POST /pix/recurring-payments" style="edgeStyle=orthogonalEdgeStyle;rounded=0;orthogonalLoop=1;jettySize=auto;html=1;exitX=0;exitY=0.25;exitDx=0;exitDy=0;entryX=0.145;entryY=0;entryDx=0;entryDy=4.35;entryPerimeter=0;" edge="1" parent="1" source="zqXJkYQbG3KaJtKTiUoM-41" target="zqXJkYQbG3KaJtKTiUoM-39">
          <mxGeometry relative="1" as="geometry" />
        </mxCell>
        <mxCell id="zqXJkYQbG3KaJtKTiUoM-64" value="SPI" style="points=[];aspect=fixed;html=1;align=center;shadow=0;dashed=0;fillColor=#FF6A00;strokeColor=none;shape=mxgraph.alibaba_cloud.kafka;labelPosition=center;verticalLabelPosition=bottom;verticalAlign=top;" vertex="1" parent="1">
          <mxGeometry x="815" y="1218" width="56.699999999999996" height="42" as="geometry" />
        </mxCell>
        <mxCell id="zqXJkYQbG3KaJtKTiUoM-65" style="edgeStyle=orthogonalEdgeStyle;rounded=0;orthogonalLoop=1;jettySize=auto;html=1;entryX=0.135;entryY=0.495;entryDx=0;entryDy=0;entryPerimeter=0;" edge="1" parent="1">
          <mxGeometry relative="1" as="geometry">
            <mxPoint x="500.0000000000002" y="1230.9999999999998" as="sourcePoint" />
            <mxPoint x="822.6545000000003" y="1230.7900000000002" as="targetPoint" />
          </mxGeometry>
        </mxCell>
        <mxCell id="zqXJkYQbG3KaJtKTiUoM-75" value="PACS.008&lt;div&gt;&lt;br&gt;&lt;/div&gt;" style="edgeLabel;html=1;align=center;verticalAlign=middle;resizable=0;points=[];" vertex="1" connectable="0" parent="zqXJkYQbG3KaJtKTiUoM-65">
          <mxGeometry x="0.1149" relative="1" as="geometry">
            <mxPoint as="offset" />
          </mxGeometry>
        </mxCell>
        <mxCell id="zqXJkYQbG3KaJtKTiUoM-66" style="edgeStyle=orthogonalEdgeStyle;rounded=0;orthogonalLoop=1;jettySize=auto;html=1;entryX=0;entryY=0.5;entryDx=0;entryDy=0;entryPerimeter=0;" edge="1" parent="1">
          <mxGeometry relative="1" as="geometry">
            <mxPoint x="871.7000000000003" y="1230.9999999999998" as="sourcePoint" />
            <mxPoint x="1170" y="1230.9999999999998" as="targetPoint" />
          </mxGeometry>
        </mxCell>
        <mxCell id="zqXJkYQbG3KaJtKTiUoM-76" value="PACS.008" style="edgeLabel;html=1;align=center;verticalAlign=middle;resizable=0;points=[];" vertex="1" connectable="0" parent="zqXJkYQbG3KaJtKTiUoM-66">
          <mxGeometry x="0.0921" y="4" relative="1" as="geometry">
            <mxPoint as="offset" />
          </mxGeometry>
        </mxCell>
        <mxCell id="zqXJkYQbG3KaJtKTiUoM-67" value="Usuário" style="shape=umlActor;verticalLabelPosition=bottom;verticalAlign=top;html=1;outlineConnect=0;fontSize=14;" vertex="1" parent="1">
          <mxGeometry x="1190" y="993" width="30" height="60" as="geometry" />
        </mxCell>
        <mxCell id="zqXJkYQbG3KaJtKTiUoM-68" style="edgeStyle=orthogonalEdgeStyle;rounded=0;orthogonalLoop=1;jettySize=auto;html=1;entryX=0;entryY=0.3333333333333333;entryDx=0;entryDy=0;entryPerimeter=0;" edge="1" parent="1" source="zqXJkYQbG3KaJtKTiUoM-41" target="zqXJkYQbG3KaJtKTiUoM-67">
          <mxGeometry relative="1" as="geometry" />
        </mxCell>
        <mxCell id="zqXJkYQbG3KaJtKTiUoM-73" style="edgeStyle=orthogonalEdgeStyle;rounded=0;orthogonalLoop=1;jettySize=auto;html=1;exitX=0;exitY=0;exitDx=0;exitDy=75;exitPerimeter=0;entryX=1.006;entryY=0.965;entryDx=0;entryDy=0;entryPerimeter=0;" edge="1" parent="1" source="zqXJkYQbG3KaJtKTiUoM-40" target="zqXJkYQbG3KaJtKTiUoM-64">
          <mxGeometry relative="1" as="geometry" />
        </mxCell>
        <mxCell id="zqXJkYQbG3KaJtKTiUoM-77" value="PACS.002" style="edgeLabel;html=1;align=center;verticalAlign=middle;resizable=0;points=[];" vertex="1" connectable="0" parent="zqXJkYQbG3KaJtKTiUoM-73">
          <mxGeometry x="-0.1647" y="2" relative="1" as="geometry">
            <mxPoint as="offset" />
          </mxGeometry>
        </mxCell>
        <mxCell id="zqXJkYQbG3KaJtKTiUoM-74" style="edgeStyle=orthogonalEdgeStyle;rounded=0;orthogonalLoop=1;jettySize=auto;html=1;entryX=1;entryY=0;entryDx=0;entryDy=75;entryPerimeter=0;" edge="1" parent="1">
          <mxGeometry relative="1" as="geometry">
            <mxPoint x="816.0000000000002" y="1257" as="sourcePoint" />
            <mxPoint x="501.0000000000002" y="1255.9999999999998" as="targetPoint" />
            <Array as="points">
              <mxPoint x="658" y="1257" />
            </Array>
          </mxGeometry>
        </mxCell>
        <mxCell id="zqXJkYQbG3KaJtKTiUoM-78" value="PACS.002" style="edgeLabel;html=1;align=center;verticalAlign=middle;resizable=0;points=[];" vertex="1" connectable="0" parent="zqXJkYQbG3KaJtKTiUoM-74">
          <mxGeometry x="-0.0729" y="2" relative="1" as="geometry">
            <mxPoint as="offset" />
          </mxGeometry>
        </mxCell>
      </root>
    </mxGraphModel>
  </diagram>
</mxfile>
